<svg xmlns="http://www.w3.org/2000/svg" viewBox="0 0 200 43"><path id="bkw-logo-text" d="M87.824,21.4934l.005-.2729a10.67875,10.67875,0,0,0,4.57052-9.0581C92.39946,3.67981,86.12354,0,77.48209,0H57V43H78.36706c8.64145,0,15.03477-3.8303,15.03477-12.1657A10.11294,10.11294,0,0,0,87.824,21.4934ZM68.18561,8.28908h8.01778c3.31,0,5.54311,1.15769,5.54311,4.42572,0,3.139-2.05443,4.7415-5.54311,4.7415H68.18561Zm8.4148,26.45822h-8.4148v-9.331h8.4148c3.37118,0,5.57289,1.1577,5.57289,4.6142C82.1733,33.0389,80.15193,34.7473,76.60041,34.7473ZM124.79489,0,112.25281,16.9403h-.58055V0H100.48842V42.9983h11.18384V25.5685h.58055l14.79557,17.4298h14.11745L121.41018,20.7574,137.82294,0Zm66.19774,42.9983L199.96875.00165H188.62461L183.38372,30.105h-.45109L176.3723.00165H164.87381L158.31349,30.105h-.45408L152.61253.00165,141.20766,0l8.87057,42.9983h13.85953l6.44581-28.853h.45508l6.35319,28.853Z" fill="#121212"/><path id="bkw-logo-icon" d="M43,0H0V43H43Z" fill="#ff6418"/></svg>